<?xml version="1.0" encoding="UTF-8" standalone="no"?> <svg width="64" height="64" viewBox="0 0 64 64" fill="none" xmlns="http://www.w3.org/2000/svg">
<path d="M59.74 54.1602L42 36.4502C41.8126 36.264 41.5591 36.1594 41.295 36.1594C41.0308 36.1594 40.7773 36.264 40.59 36.4502C40.4962 36.5432 40.4218 36.6538 40.3711 36.7756C40.3203 36.8975 40.2942 37.0282 40.2942 37.1602C40.2942 37.2922 40.3203 37.4229 40.3711 37.5448C40.4218 37.6667 40.4962 37.7773 40.59 37.8702L40.72 38.0002L37.85 40.6202C37.757 40.5265 37.6464 40.4521 37.5245 40.4013C37.4027 40.3506 37.272 40.3244 37.14 40.3244C37.0079 40.3244 36.8772 40.3506 36.7554 40.4013C36.6335 40.4521 36.5229 40.5265 36.43 40.6202C36.2437 40.8076 36.1392 41.061 36.1392 41.3252C36.1392 41.5894 36.2437 41.8429 36.43 42.0302L54.16 59.7402C54.5196 60.1353 54.9558 60.4534 55.4419 60.6751C55.928 60.8968 56.4541 61.0176 56.9883 61.0301C57.5225 61.0426 58.0536 60.9466 58.5496 60.748C59.0456 60.5493 59.4962 60.2521 59.874 59.8742C60.2518 59.4964 60.549 59.0459 60.7477 58.5499C60.9464 58.0539 61.0424 57.5227 61.0298 56.9885C61.0173 56.4544 60.8965 55.9283 60.6748 55.4422C60.4531 54.956 60.1351 54.5199 59.74 54.1602V54.1602Z" fill="#275996"/>
<path d="M24.77 46.4401C36.738 46.4401 46.44 36.7381 46.44 24.7701C46.44 12.8021 36.738 3.1001 24.77 3.1001C12.802 3.1001 3.09998 12.8021 3.09998 24.7701C3.09998 36.7381 12.802 46.4401 24.77 46.4401Z" fill="#0099D6"/>
<path d="M24.77 7.66016C21.3836 7.66016 18.0732 8.66448 15.2576 10.5461C12.442 12.4277 10.2477 15.1021 8.95226 18.2309C7.65678 21.3598 7.31833 24.8026 7.97972 28.1238C8.64111 31.445 10.2726 34.4955 12.6679 36.8894C15.0632 39.2832 18.1146 40.913 21.4362 41.5724C24.7578 42.2319 28.2004 41.8914 31.3285 40.5941C34.4566 39.2968 37.1297 37.1009 39.0096 34.2842C40.8896 31.4676 41.892 28.1566 41.89 24.7702C41.8821 20.233 40.0755 15.8841 36.8663 12.6768C33.6571 9.46948 29.3072 7.66544 24.77 7.66016V7.66016Z" fill="#97CCEF"/>
</svg>
