<?xml version="1.0" encoding="UTF-8" standalone="no"?> <svg width="64" height="64" viewBox="0 0 64 64" fill="none" xmlns="http://www.w3.org/2000/svg">
<path d="M61 11V53C61 54.0609 60.5786 55.0783 59.8284 55.8284C59.0783 56.5786 58.0609 57 57 57H11C10.2302 56.9999 9.47693 56.777 8.83104 56.3582C8.18514 55.9395 7.67424 55.3427 7.36 54.64C7.12329 54.1256 7.00049 53.5662 7 53V11C7 9.93913 7.42143 8.92172 8.17157 8.17157C8.92172 7.42143 9.93913 7 11 7H57C57.5662 7.00049 58.1256 7.12329 58.64 7.36C59.3427 7.67424 59.9395 8.18514 60.3582 8.83104C60.777 9.47693 60.9999 10.2302 61 11V11Z" fill="#E6E7E8"/>
<path d="M59 9V51C59 52.0609 58.5786 53.0783 57.8284 53.8284C57.0783 54.5786 56.0609 55 55 55H9C8.43379 54.9995 7.87436 54.8767 7.36 54.64C7.12329 54.1256 7.00049 53.5662 7 53V11C7 9.93913 7.42143 8.92172 8.17157 8.17157C8.92172 7.42143 9.93913 7 11 7H57C57.5662 7.00049 58.1256 7.12329 58.64 7.36C58.8767 7.87436 58.9995 8.43379 59 9V9Z" fill="#D8D7DA"/>
<path d="M57 7V11H3V7C3 5.93913 3.42143 4.92172 4.17157 4.17157C4.92172 3.42143 5.93913 3 7 3H53C54.0609 3 55.0783 3.42143 55.8284 4.17157C56.5786 4.92172 57 5.93913 57 7Z" fill="#FF6243"/>
<path d="M57 11V49C57 50.0609 56.5786 51.0783 55.8284 51.8284C55.0783 52.5786 54.0609 53 53 53H7C5.93913 53 4.92172 52.5786 4.17157 51.8284C3.42143 51.0783 3 50.0609 3 49V11H57Z" fill="#E6E7E8"/>
<path d="M45 55.54L45.84 57H41.32C41.236 56.6382 41.2531 56.2602 41.3695 55.9074C41.4859 55.5547 41.6971 55.2408 41.98 55C42.0726 54.9277 42.1695 54.8609 42.27 54.8C42.4976 54.6685 42.749 54.5834 43.0097 54.5494C43.2704 54.5155 43.5352 54.5334 43.7889 54.6022C44.0426 54.6709 44.2803 54.7892 44.4881 54.9502C44.696 55.1111 44.8699 55.3116 45 55.54V55.54Z" fill="#D8D7DA"/>
<path d="M61 53C61 54.0609 60.5786 55.0783 59.8284 55.8284C59.0783 56.5786 58.0609 57 57 57H47V47C47.0016 46.4701 47.2128 45.9623 47.5875 45.5875C47.9623 45.2128 48.4701 45.0016 49 45C49.5292 45.0039 50.0356 45.2159 50.4099 45.5901C50.7841 45.9644 50.9961 46.4708 51 47V53C51.0184 52.4754 51.235 51.9773 51.6062 51.6062C51.9773 51.235 52.4754 51.0184 53 51C53.5292 51.0039 54.0356 51.2159 54.4099 51.5901C54.7841 51.9644 54.9961 52.4708 55 53V54C55.0016 53.4701 55.2128 52.9623 55.5875 52.5875C55.9623 52.2128 56.4701 52.0016 57 52C57.2626 51.9986 57.5228 52.0501 57.765 52.1515C58.0073 52.2529 58.2266 52.402 58.41 52.59C58.4718 52.6485 58.5287 52.7121 58.58 52.78C58.8551 53.1268 59.0033 53.5573 59 54V55C59.0016 54.4701 59.2128 53.9623 59.5875 53.5875C59.9623 53.2128 60.4701 53.0016 61 53Z" fill="#D8D7DA"/>
<path d="M61 53V62H43.27L40.38 57L39.54 55.54C39.302 55.1327 39.2157 54.6544 39.2962 54.1897C39.3767 53.7249 39.6189 53.3035 39.98 53C40.0726 52.9277 40.1695 52.8609 40.27 52.8C40.4976 52.6685 40.749 52.5834 41.0097 52.5494C41.2704 52.5155 41.5352 52.5334 41.7889 52.6022C42.0426 52.6709 42.2803 52.7892 42.4881 52.9502C42.6959 53.1111 42.8699 53.3116 43 53.54L45 57V45C45.0016 44.4701 45.2128 43.9623 45.5875 43.5875C45.9623 43.2128 46.4701 43.0016 47 43C47.5292 43.0039 48.0356 43.2159 48.4099 43.5901C48.7841 43.9644 48.9961 44.4708 49 45V51C49.0184 50.4754 49.235 49.9773 49.6062 49.6062C49.9773 49.235 50.4754 49.0184 51 49C51.5292 49.0039 52.0356 49.2159 52.4099 49.5901C52.7841 49.9644 52.9961 50.4708 53 51V52C53.0016 51.4701 53.2128 50.9623 53.5875 50.5875C53.9623 50.2128 54.4701 50.0016 55 50C55.2626 49.9986 55.5228 50.0501 55.765 50.1515C56.0073 50.2529 56.2266 50.402 56.41 50.59C56.4718 50.6485 56.5287 50.7121 56.58 50.78C56.8551 51.1268 57.0033 51.5573 57 52V53C57.0016 52.4701 57.2128 51.9623 57.5875 51.5875C57.9623 51.2128 58.4701 51.0016 59 51C59.5292 51.0039 60.0356 51.2159 60.4099 51.5901C60.7841 51.9644 60.9961 52.4708 61 53V53Z" fill="#FFC477"/>
<path d="M36.72 34.72C36.0951 37.6297 34.4916 40.2372 32.1769 42.1076C29.8621 43.9781 26.976 44.9984 24 44.9984C21.024 44.9984 18.1379 43.9781 15.8231 42.1076C13.5084 40.2372 11.9049 37.6297 11.28 34.72C11.0953 33.8251 11.0015 32.9138 11 32C11 28.5522 12.3696 25.2456 14.8076 22.8076C17.2456 20.3696 20.5522 19 24 19C27.4478 19 30.7544 20.3696 33.1924 22.8076C35.6304 25.2456 37 28.5522 37 32C36.9985 32.9138 36.9047 33.8251 36.72 34.72V34.72Z" fill="#BDDBFF"/>
<path d="M43 34C42.9995 38.162 41.4722 42.1792 38.7076 45.2904C35.943 48.4015 32.1331 50.3904 28 50.88V53H24V50.88C20.7457 50.4945 17.6722 49.1766 15.1495 47.0849C12.6268 44.9933 10.7623 42.2171 9.78068 39.0906C8.79901 35.964 8.74193 32.6203 9.61631 29.4621C10.4907 26.3039 12.2593 23.4657 14.7091 21.2891C17.159 19.1126 20.1857 17.6906 23.425 17.1942C26.6642 16.6978 29.9779 17.1483 32.9671 18.4913C35.9563 19.8343 38.4936 22.0127 40.2736 24.7642C42.0536 27.5156 43.0004 30.723 43 34V34Z" fill="#D8D7DA"/>
<path d="M27 57V61H21V53C21 52.7348 21.1054 52.4804 21.2929 52.2929C21.4804 52.1054 21.7348 52 22 52H26C26.2652 52 26.5196 52.1054 26.7071 52.2929C26.8946 52.4804 27 52.7348 27 53V57Z" fill="#1E81CE"/>
<path d="M26 47.88V52H22V47.88C23.3285 48.04 24.6715 48.04 26 47.88V47.88Z" fill="#5AAAE7"/>
<path d="M26 47.88V50.88C24.6715 51.04 23.3285 51.04 22 50.88V47.88C23.3285 48.04 24.6715 48.04 26 47.88V47.88Z" fill="#3D9AE2"/>
<path d="M41 32C40.9995 36.162 39.4722 40.1792 36.7076 43.2904C33.943 46.4015 30.1331 48.3904 26 48.88C24.6715 49.04 23.3285 49.04 22 48.88C18.7457 48.4945 15.6722 47.1766 13.1495 45.0849C10.6268 42.9933 8.76235 40.2171 7.78068 37.0906C6.79901 33.964 6.74193 30.6203 7.61631 27.4621C8.4907 24.3039 10.2593 21.4657 12.7091 19.2891C15.159 17.1126 18.1857 15.6906 21.425 15.1942C24.6642 14.6978 27.9779 15.1483 30.9671 16.4913C33.9563 17.8343 36.4936 20.0127 38.2736 22.7642C40.0536 25.5156 41.0004 28.723 41 32V32Z" fill="#5AAAE7"/>
<path d="M24 45C31.1797 45 37 39.1797 37 32C37 24.8203 31.1797 19 24 19C16.8203 19 11 24.8203 11 32C11 39.1797 16.8203 45 24 45Z" fill="#E6E7E8"/>
<path d="M20 29V35C20 35.1978 20.0587 35.391 20.1686 35.5555C20.2785 35.7199 20.4346 35.848 20.6173 35.9237C20.8 35.9993 21.0011 36.0192 21.195 35.9806C21.389 35.942 21.5671 35.8468 21.707 35.707L24 33.414L26.293 35.707C26.4805 35.8946 26.7348 35.9999 27 36C27.1315 36.0004 27.2617 35.9746 27.383 35.924C27.5657 35.8483 27.7218 35.72 27.8316 35.5556C27.9415 35.3911 28 35.1978 28 35V29H26V32.586L24.707 31.293C24.5195 31.1055 24.2652 31.0002 24 31.0002C23.7348 31.0002 23.4805 31.1055 23.293 31.293L22 32.586V29H20Z" fill="black"/>
<path d="M14 33.414L16.293 35.707C16.4805 35.8946 16.7348 35.9999 17 36C17.1315 36.0004 17.2617 35.9746 17.383 35.924C17.5657 35.8483 17.7218 35.72 17.8316 35.5556C17.9415 35.3911 18 35.1978 18 35V29H16V32.586L14.707 31.293C14.5195 31.1055 14.2652 31.0002 14 31.0002C13.7348 31.0002 13.4805 31.1055 13.293 31.293L12 32.586V29H10V35C10 35.1978 10.0587 35.391 10.1686 35.5555C10.2785 35.7199 10.4346 35.848 10.6173 35.9237C10.8 35.9993 11.0011 36.0192 11.195 35.9806C11.389 35.942 11.5671 35.8468 11.707 35.707L14 33.414Z" fill="black"/>
<path d="M36 32.586L34.707 31.293C34.5195 31.1055 34.2652 31.0002 34 31.0002C33.7348 31.0002 33.4805 31.1055 33.293 31.293L32 32.586V29H30V35C30 35.1978 30.0587 35.391 30.1686 35.5555C30.2785 35.7199 30.4346 35.848 30.6173 35.9237C30.8 35.9993 31.0011 36.0192 31.195 35.9806C31.389 35.942 31.5671 35.8468 31.707 35.707L34 33.414L36.293 35.707C36.4805 35.8946 36.7348 35.9999 37 36C37.1315 36.0004 37.2617 35.9746 37.383 35.924C37.5657 35.8483 37.7218 35.72 37.8316 35.5556C37.9415 35.3911 38 35.1978 38 35V29H36V32.586Z" fill="black"/>
<path d="M24 20C26.3706 19.9958 28.6891 20.6953 30.6618 22.01C32.6344 23.3247 34.1725 25.1954 35.081 27.385L36.926 26.615C35.8638 24.0619 34.0694 21.8805 31.769 20.346C29.4686 18.8115 26.7652 17.9926 24 17.9926C21.2348 17.9926 18.5314 18.8115 16.231 20.346C13.9306 21.8805 12.1362 24.0619 11.074 26.615L12.919 27.385C13.8275 25.1954 15.3656 23.3247 17.3382 22.01C19.3109 20.6953 21.6294 19.9958 24 20V20Z" fill="black"/>
<path d="M35.077 36.623C34.1973 38.7288 32.7355 40.5402 30.8631 41.8449C28.9907 43.1496 26.7851 43.8935 24.505 43.9896C22.2248 44.0856 19.9646 43.5297 17.9891 42.3871C16.0136 41.2444 14.4047 39.5623 13.351 37.538L11.578 38.462C12.8068 40.8236 14.6833 42.7862 16.9875 44.1195C19.2918 45.4529 21.9283 46.1019 24.5882 45.9904C27.2481 45.879 29.8211 45.0117 32.0057 43.4902C34.1904 41.9688 35.8961 39.8562 36.923 37.4L35.077 36.623Z" fill="black"/>
<path d="M45 14H43V16H45V14Z" fill="black"/>
<path d="M53 14H47V16H53V14Z" fill="black"/>
<path d="M53 18H43V20H53V18Z" fill="black"/>
<path d="M49 22H43V24H49V22Z" fill="black"/>
<path d="M53 22H51V24H53V22Z" fill="black"/>
<path d="M57.91 6.09C57.6976 4.94238 57.0904 3.90523 56.1937 3.15825C55.2969 2.41126 54.1671 2.00152 53 2H7C5.67392 2 4.40215 2.52678 3.46447 3.46447C2.52678 4.40215 2 5.67392 2 7V49C2.00152 50.1671 2.41126 51.2969 3.15825 52.1937C3.90523 53.0904 4.94238 53.6976 6.09 53.91C6.30241 55.0576 6.90959 56.0948 7.80634 56.8418C8.70309 57.5887 9.83289 57.9985 11 58H20V61C20 61.2652 20.1054 61.5196 20.2929 61.7071C20.4804 61.8946 20.7348 62 21 62H27C27.2652 62 27.5196 61.8946 27.7071 61.7071C27.8946 61.5196 28 61.2652 28 61V58H39.8L42.4 62.5L44.13 61.5L40.4 55.04C40.2691 54.8089 40.2346 54.5355 40.3039 54.2791C40.3731 54.0227 40.5406 53.8038 40.77 53.67C40.8833 53.6038 41.0086 53.5609 41.1387 53.5437C41.2688 53.5265 41.401 53.5354 41.5276 53.5698C41.6542 53.6043 41.7727 53.6636 41.8761 53.7443C41.9795 53.825 42.0658 53.9256 42.13 54.04L44.13 57.5C44.2392 57.6926 44.4092 57.8436 44.6134 57.9292C44.8176 58.0148 45.0444 58.0302 45.2583 57.9731C45.4722 57.9159 45.6611 57.7893 45.7953 57.6132C45.9296 57.4371 46.0015 57.2214 46 57V45C46 44.7348 46.1054 44.4804 46.2929 44.2929C46.4804 44.1054 46.7348 44 47 44C47.2652 44 47.5196 44.1054 47.7071 44.2929C47.8946 44.4804 48 44.7348 48 45V54C48 54.2652 48.1054 54.5196 48.2929 54.7071C48.4804 54.8946 48.7348 55 49 55C49.2652 55 49.5196 54.8946 49.7071 54.7071C49.8946 54.5196 50 54.2652 50 54V51C50.0173 50.7405 50.1283 50.4961 50.3122 50.3122C50.4961 50.1283 50.7405 50.0173 51 50C51.2652 50 51.5196 50.1054 51.7071 50.2929C51.8946 50.4804 52 50.7348 52 51V54C52 54.2652 52.1054 54.5196 52.2929 54.7071C52.4804 54.8946 52.7348 55 53 55C53.2652 55 53.5196 54.8946 53.7071 54.7071C53.8946 54.5196 54 54.2652 54 54V52C54 51.7348 54.1054 51.4804 54.2929 51.2929C54.4804 51.1054 54.7348 51 55 51C55.2652 51 55.5196 51.1054 55.7071 51.2929C55.8946 51.4804 56 51.7348 56 52V55C56 55.2652 56.1054 55.5196 56.2929 55.7071C56.4804 55.8946 56.7348 56 57 56C57.2652 56 57.5196 55.8946 57.7071 55.7071C57.8946 55.5196 58 55.2652 58 55V53C58 52.7348 58.1054 52.4804 58.2929 52.2929C58.4804 52.1054 58.7348 52 59 52C59.2652 52 59.5196 52.1054 59.7071 52.2929C59.8946 52.4804 60 52.7348 60 53V62H62V11C61.9985 9.83289 61.5887 8.70309 60.8418 7.80634C60.0948 6.90959 59.0576 6.30241 57.91 6.09V6.09ZM20 56H11C10.3814 55.9968 9.77881 55.8031 9.27422 55.4452C8.76964 55.0874 8.38756 54.5827 8.18 54H20V56ZM26 60H22V53H26V60ZM23 51V49.95C23.33 49.97 23.66 50 24 50C24.34 50 24.67 49.97 25 49.95V51H23ZM24 48C20.8355 48 17.7421 47.0616 15.1109 45.3035C12.4797 43.5454 10.4289 41.0466 9.21793 38.1229C8.00693 35.1993 7.69007 31.9823 8.30744 28.8786C8.9248 25.7749 10.4487 22.9239 12.6863 20.6863C14.9239 18.4487 17.7749 16.9248 20.8786 16.3074C23.9823 15.6901 27.1993 16.0069 30.1229 17.2179C33.0466 18.4289 35.5454 20.4797 37.3035 23.1109C39.0616 25.7421 40 28.8355 40 32C39.9944 36.2418 38.3069 40.3082 35.3076 43.3076C32.3082 46.3069 28.2418 47.9944 24 48V48ZM28 56V54H38.33C38.2016 54.6836 38.3147 55.3906 38.65 56H28ZM56 49C56 49.06 55.98 49.12 55.98 49.19C55.6668 49.0704 55.3352 49.0061 55 49C54.4842 48.9985 53.9772 49.1331 53.53 49.39C53.2592 48.9642 52.8854 48.6137 52.4432 48.3707C52.0009 48.1277 51.5046 48.0002 51 48C50.6579 48.0022 50.319 48.0665 50 48.19V45C50 44.2044 49.6839 43.4413 49.1213 42.8787C48.5587 42.3161 47.7956 42 47 42C46.2044 42 45.4413 42.3161 44.8787 42.8787C44.3161 43.4413 44 44.2044 44 45V52H42.84C42.3815 51.7133 41.8539 51.5564 41.3133 51.5458C40.7727 51.5352 40.2393 51.6715 39.77 51.94L39.68 52H27.72C27.5494 51.6994 27.3006 51.4506 27 51.28V49.73C31.4502 48.9778 35.4554 46.5812 38.2219 43.0152C40.9885 39.4492 42.3144 34.974 41.937 30.4765C41.5595 25.979 39.5063 21.7874 36.1841 18.7323C32.8619 15.6773 28.5133 13.9818 24 13.9818C19.4867 13.9818 15.1381 15.6773 11.8159 18.7323C8.49373 21.7874 6.44048 25.979 6.06305 30.4765C5.68562 34.974 7.01154 39.4492 9.77807 43.0152C12.5446 46.5812 16.5498 48.9778 21 49.73V51.28C20.6994 51.4506 20.4506 51.6994 20.28 52H7C6.20508 51.9976 5.4434 51.6808 4.8813 51.1187C4.31921 50.5566 4.00237 49.7949 4 49V12H56V49ZM56 10H4V7C4.00237 6.20508 4.31921 5.4434 4.8813 4.8813C5.4434 4.31921 6.20508 4.00237 7 4H53C53.7949 4.00237 54.5566 4.31921 55.1187 4.8813C55.6808 5.4434 55.9976 6.20508 56 7V10ZM60 50.18C59.6511 50.0487 59.2795 49.9882 58.907 50.0019C58.5344 50.0157 58.1683 50.1034 57.83 50.26C57.9418 49.8493 57.9989 49.4256 58 49V8.18C58.5827 8.38756 59.0874 8.76964 59.4452 9.27422C59.8031 9.77881 59.9968 10.3814 60 11V50.18Z" fill="black"/>
<path d="M8 6H6V8H8V6Z" fill="black"/>
<path d="M12 6H10V8H12V6Z" fill="black"/>
<path d="M16 6H14V8H16V6Z" fill="black"/>
</svg>
