<?xml version="1.0" encoding="UTF-8" standalone="no"?> <svg width="64" height="64" viewBox="0 0 64 64" fill="none" xmlns="http://www.w3.org/2000/svg">
<path d="M46.54 36.25H17.61C14.6833 36.25 11.8765 37.4126 9.80703 39.4821C7.73756 41.5515 6.57495 44.3583 6.57495 47.285C6.57495 50.2117 7.73756 53.0185 9.80703 55.0879C11.8765 57.1574 14.6833 58.32 17.61 58.32H46.54C49.4666 58.32 52.2734 57.1574 54.3429 55.0879C56.4123 53.0185 57.575 50.2117 57.575 47.285C57.575 44.3583 56.4123 41.5515 54.3429 39.4821C52.2734 37.4126 49.4666 36.25 46.54 36.25V36.25ZM46.59 54.79C45.2055 54.79 43.8521 54.3795 42.701 53.6103C41.5498 52.8411 40.6526 51.7479 40.1228 50.4688C39.593 49.1897 39.4544 47.7822 39.7245 46.4244C39.9945 45.0665 40.6612 43.8192 41.6402 42.8403C42.6192 41.8613 43.8665 41.1946 45.2243 40.9245C46.5822 40.6544 47.9897 40.793 49.2687 41.3228C50.5478 41.8527 51.6411 42.7499 52.4102 43.901C53.1794 45.0522 53.59 46.4055 53.59 47.79C53.59 49.6465 52.8525 51.427 51.5397 52.7397C50.2269 54.0525 48.4465 54.79 46.59 54.79V54.79Z" fill="#78B9EB"/>
<path d="M46.5399 5.18018H17.6099C14.6925 5.18018 11.8946 6.3391 9.83169 8.402C7.76879 10.4649 6.60986 13.2628 6.60986 16.1802V16.1802C6.60986 19.0976 7.76879 21.8954 9.83169 23.9583C11.8946 26.0212 14.6925 27.1802 17.6099 27.1802H46.5399C47.9844 27.1802 49.4148 26.8957 50.7494 26.3428C52.084 25.79 53.2966 24.9798 54.318 23.9583C55.3395 22.9369 56.1497 21.7243 56.7025 20.3897C57.2553 19.0551 57.5399 17.6247 57.5399 16.1802V16.1802C57.5399 13.2628 56.3809 10.4649 54.318 8.402C52.2551 6.3391 49.4572 5.18018 46.5399 5.18018V5.18018ZM17.4499 23.0702C16.0654 23.0702 14.712 22.6596 13.5609 21.8905C12.4097 21.1213 11.5125 20.028 10.9827 18.749C10.4529 17.4699 10.3143 16.0624 10.5844 14.7045C10.8545 13.3467 11.5211 12.0994 12.5001 11.1204C13.4791 10.1415 14.7264 9.47478 16.0842 9.20468C17.4421 8.93458 18.8496 9.07321 20.1286 9.60302C21.4077 10.1328 22.501 11.03 23.2701 12.1812C24.0393 13.3323 24.4499 14.6857 24.4499 16.0702C24.4499 17.9267 23.7124 19.7072 22.3996 21.0199C21.0869 22.3327 19.3064 23.0702 17.4499 23.0702V23.0702Z" fill="#78B9EB"/>
<path d="M17.46 28.25H46.54C49.7226 28.25 52.7748 26.9857 55.0252 24.7353C57.2757 22.4848 58.54 19.4326 58.54 16.25C58.54 13.0674 57.2757 10.0152 55.0252 7.76472C52.7748 5.51428 49.7226 4.25 46.54 4.25H17.46C14.2774 4.25 11.2251 5.51428 8.97468 7.76472C6.72424 10.0152 5.45996 13.0674 5.45996 16.25C5.45996 19.4326 6.72424 22.4848 8.97468 24.7353C11.2251 26.9857 14.2774 28.25 17.46 28.25V28.25ZM17.46 6.71H46.54C47.8394 6.62564 49.1423 6.80874 50.3681 7.24799C51.5939 7.68723 52.7166 8.37328 53.6667 9.26371C54.6168 10.1541 55.3741 11.23 55.8919 12.4248C56.4096 13.6196 56.6767 14.9079 56.6767 16.21C56.6767 17.5121 56.4096 18.8004 55.8919 19.9952C55.3741 21.19 54.6168 22.2659 53.6667 23.1563C52.7166 24.0467 51.5939 24.7328 50.3681 25.172C49.1423 25.6113 47.8394 25.7944 46.54 25.71H17.46C15.0469 25.5533 12.784 24.4843 11.1304 22.7199C9.4769 20.9556 8.55673 18.6281 8.55673 16.21C8.55673 13.7919 9.4769 11.4644 11.1304 9.70005C12.784 7.93568 15.0469 6.86666 17.46 6.71Z" fill="#006DF0"/>
<path d="M17.46 23.94C18.9849 23.94 20.4755 23.4878 21.7434 22.6407C23.0113 21.7935 23.9996 20.5893 24.5831 19.1805C25.1667 17.7717 25.3193 16.2215 25.0219 14.7259C24.7244 13.2303 23.9901 11.8565 22.9118 10.7782C21.8335 9.69997 20.4597 8.96566 18.9641 8.66817C17.4686 8.37068 15.9183 8.52336 14.5095 9.10691C13.1007 9.69046 11.8966 10.6787 11.0494 11.9466C10.2022 13.2145 9.75 14.7051 9.75 16.23C9.75265 18.274 10.5658 20.2336 12.0111 21.6789C13.4565 23.1242 15.416 23.9374 17.46 23.94V23.94ZM17.46 11.02C18.4904 11.02 19.4977 11.3256 20.3545 11.8981C21.2113 12.4705 21.8791 13.2842 22.2734 14.2362C22.6677 15.1882 22.7709 16.2358 22.5699 17.2464C22.3689 18.2571 21.8727 19.1854 21.144 19.914C20.4154 20.6427 19.4871 21.1389 18.4764 21.3399C17.4658 21.5409 16.4182 21.4378 15.4662 21.0434C14.5142 20.6491 13.7005 19.9813 13.128 19.1245C12.5556 18.2678 12.25 17.2605 12.25 16.23C12.2487 15.5445 12.3824 14.8655 12.6435 14.2317C12.9046 13.5978 13.288 13.0216 13.7718 12.536C14.2556 12.0503 14.8303 11.6647 15.4632 11.4012C16.096 11.1377 16.7745 11.0013 17.46 11V11.02Z" fill="#006DF0"/>
<path d="M46.54 35.75H17.46C14.2774 35.75 11.2251 37.0143 8.97468 39.2647C6.72424 41.5152 5.45996 44.5674 5.45996 47.75C5.45996 50.9326 6.72424 53.9848 8.97468 56.2353C11.2251 58.4857 14.2774 59.75 17.46 59.75H46.54C49.7226 59.75 52.7748 58.4857 55.0252 56.2353C57.2757 53.9848 58.54 50.9326 58.54 47.75C58.54 44.5674 57.2757 41.5152 55.0252 39.2647C52.7748 37.0143 49.7226 35.75 46.54 35.75V35.75ZM46.54 57.29H17.46C15.0469 57.1333 12.784 56.0643 11.1304 54.2999C9.4769 52.5356 8.55673 50.2081 8.55673 47.79C8.55673 45.3719 9.4769 43.0444 11.1304 41.2801C12.784 39.5157 15.0469 38.4467 17.46 38.29H46.54C48.953 38.4467 51.216 39.5157 52.8695 41.2801C54.523 43.0444 55.4432 45.3719 55.4432 47.79C55.4432 50.2081 54.523 52.5356 52.8695 54.2999C51.216 56.0643 48.953 57.1333 46.54 57.29V57.29Z" fill="#006DF0"/>
<path d="M46.5401 40.0601C45.0152 40.0601 43.5245 40.5122 42.2566 41.3594C40.9887 42.2066 40.0005 43.4108 39.417 44.8196C38.8334 46.2284 38.6807 47.7786 38.9782 49.2742C39.2757 50.7698 40.01 52.1436 41.0883 53.2219C42.1666 54.3001 43.5403 55.0344 45.0359 55.3319C46.5315 55.6294 48.0818 55.4767 49.4906 54.8932C50.8994 54.3096 52.1035 53.3214 52.9507 52.0535C53.7979 50.7856 54.2501 49.295 54.2501 47.7701C54.2474 45.7261 53.4343 43.7665 51.989 42.3212C50.5436 40.8759 48.5841 40.0627 46.5401 40.0601V40.0601ZM46.5401 52.9801C45.5096 52.9801 44.5023 52.6745 43.6456 52.102C42.7888 51.5295 42.121 50.7158 41.7267 49.7638C41.3323 48.8118 41.2292 47.7643 41.4302 46.7536C41.6312 45.743 42.1274 44.8147 42.8561 44.086C43.5847 43.3574 44.513 42.8612 45.5237 42.6602C46.5343 42.4591 47.5819 42.5623 48.5339 42.9566C49.4859 43.351 50.2996 44.0188 50.872 44.8755C51.4445 45.7323 51.7501 46.7396 51.7501 47.7701C51.7514 48.4556 51.6177 49.1346 51.3566 49.7684C51.0954 50.4023 50.712 50.9784 50.2283 51.4641C49.7445 51.9497 49.1697 52.3353 48.5369 52.5989C47.9041 52.8624 47.2256 52.9987 46.5401 53.0001V52.9801Z" fill="#006DF0"/>
</svg>
